<?xml version="1.0" encoding="utf-8"?>
<!-- Generator: Adobe Illustrator 23.0.2, SVG Export Plug-In . SVG Version: 6.00 Build 0)  -->
<svg version="1.1" id="レイヤー_1" xmlns="http://www.w3.org/2000/svg" xmlns:xlink="http://www.w3.org/1999/xlink" x="0px"
	 y="0px" viewBox="0 0 1024 1024" style="enable-background:new 0 0 1024 1024;" xml:space="preserve">
<style type="text/css">
	.st0{fill:#FEF3E5;stroke:#FEF3E5;stroke-miterlimit:10;}
	.st1{fill:#342D22;stroke:#342D22;stroke-miterlimit:10;}
</style>
<rect class="st0" width="1024" height="1024"/>
<path class="st1" d="M467.55,481.65C638.27,398.52,790.85,253.37,793.09,0H0v384.83C0,384.83,242.64,382.41,467.55,481.65z"/>
<path class="st1" d="M0,431.17v59.22v102.44c0,0,199.12-3.7,397.83-80.83C199.12,434.87,0,431.17,0,431.17z"/>
<path class="st1" d="M467.55,542.35C242.64,641.59,0,639.17,0,639.17V1024h793.09C790.85,770.63,638.27,625.48,467.55,542.35z"/>
<path class="st1" d="M842.85,0c-3.32,266-146.16,421.32-313.33,512c167.17,90.68,310.01,246,313.33,512H1024V0H842.85z"/>
</svg>

