<svg xmlns="http://www.w3.org/2000/svg" viewBox="0 0 218.08 250.27"><defs><style>.cls-1{fill:#e99e95;}</style></defs><g id="レイヤー_2" data-name="レイヤー 2"><g id="レイヤー_1-2" data-name="レイヤー 1"><path class="cls-1" d="M47.08,115.54c-7.69,8.55-22,1.81-28.36,15-11.87,24.67,10.75,40,29.36,51,6.34,3.57,14.23,10,22,9.49,8.58-.44,15.58-12.94,19.33-19.49,11.33-19.77,24.28-45.44,18.67-69-24,4.83-24.72,46.42-47,54,.84-7.63,7.76-12.76,11.78-19,6.59-10.2,12.67-21.22,20-30.91,7.5-9.95,16.25-16.6,20.22-29.09,4-13,4.38-27-.41-40A58,58,0,0,0,92.08,10.59c-8.22-5.81-17.12-8.8-27-10C33.74-3.95,3.41,19.94.25,51.54-2.44,78.54,16.67,114.89,47.08,115.54Z"/><path class="cls-1" d="M132.08,86.54h1l11-33,21,4,3-31c6.93.06,18.89,4.69,20-5-5.28-.71-23.15-7.19-27-2.39-5,6.13,2.29,19.8-4.59,25.7-4.74,4.07-13-2.64-18,0-3.19,1.71-3.13,7.64-3.56,10.64C133.52,65.78,132.08,76.21,132.08,86.54Z"/><path class="cls-1" d="M165.08,62.54c-10.27,4.21-19.61,27.7-22,38l23.43-24.6,17.57,8.6,13-28c6,3.35,16.28,11.22,21,3-4.72-3.2-17.73-14.26-23.79-12.28-11.91,3.89-4.21,29.34-23.21,19.81A20.48,20.48,0,0,1,165.08,62.54Z"/><path class="cls-1" d="M114.08,103.54c7.28,23.32-10.29,55.59-22.32,75-5.92,9.58-10.09,18.39-22.68,18.55-19.48.23-38.28-21.48-53-31.55l6,84h80c5,0,22.78,2.71,25.41-2.31,3.19-6.08,1.59-16.07,1.59-22.69,0-17.31.47-34.76-1.17-52-.83-7.64-6.57-23.65.17-29.35,8.57-7,39-5.65,47.62,1.08,8.15,6.53,12.67,19.27,17.14,28.27,2.61,5.32,8.22,26.73,16.19,23.8,6.78-2.5,4.05-16.25,3.47-21.8-2.42-17.72,1-46-13.8-59.56-5-4.44-16.15-4.83-22.62-5.85C155.84,106,134.56,103.6,114.08,103.54Z"/></g></g></svg>