<svg xmlns="http://www.w3.org/2000/svg" viewBox="0 0 295.98 234.28"><defs><style>.cls-1{fill:#e99e95;}</style></defs><g id="レイヤー_2" data-name="レイヤー 2"><g id="レイヤー_1-2" data-name="レイヤー 1"><path class="cls-1" d="M130.34,52.07l22,6c-5.67,2.68-14.06,6.71-16,13l18,7c-3,1.34-19,9.67-14.33,14,3.17,3,14.33.18,18.33-.29,17-2,34-4.34,51-7.71,5.51-1,13.46-4.64,19-3.73,5,.83,9,7,13,10,9,6.76,18.2,8.36,29,5.33,5.8-1.57,12.38-3.51,16.82-7.79,16.68-16.07,8.18-36.78-12.82-41.78,4.32-5.81,11.21-10.48,12.66-18C291.34,5.17,264.94-2.49,247.34.68c-10,1.79-16.57,7.83-21.53,16.39-2.11,3.63-3.17,9.56-6.86,12-3.29,2.13-8.81,1.78-12.61,2.28-9.07,1.19-18,3.1-27,4.72-12.19,2-24,5.34-36,8.37C138.1,45.77,132.08,46.34,130.34,52.07Z"/><path class="cls-1" d="M39.34,205.07c.82,7,.5,15,4.81,21,12.5,17.15,35.55,4.11,44.75-9a30.78,30.78,0,0,0,4.35-28c-1.41-4.38-5.91-10.32-4.91-15,1.41-5.92,7.66-11.84,10.8-17,8.56-14,17.08-28.26,24.45-43,3.17-6.35,8.74-13.71,7.75-21l-20,9,4-20c-7-1-16,6.5-22,10,.42-3.18,4.82-17,.74-18.54S81.83,86.18,79.77,89.07c-9,12.61-17.43,25.68-25.22,39-3.47,5.8-6.21,13.81-10.84,18.68-4,4.12-12.15,3-17.37,3.94-10,1.88-17,7.38-21.62,16.38-7.47,14.71-8.17,41.35,13.62,43.81C25.78,211.72,32.65,207.67,39.34,205.07Z"/></g></g></svg>