<svg xmlns="http://www.w3.org/2000/svg" viewBox="0 0 204.02 262.88"><defs><style>.cls-1{fill:#e99e95;}</style></defs><g id="レイヤー_2" data-name="レイヤー 2"><g id="レイヤー_1-2" data-name="レイヤー 1"><path class="cls-1" d="M94.91,262.88h4c0-7.33.8-15-1.7-22-9.33-26.21-41.5-32.38-60.3-50C6.37,162-3.36,115.24,9.25,75.88c20.28-63.26,98.32-96,151.66-49.71,32.46,28.23,40.22,64.88,37,105.71-8.16,0-17.23-1.53-25,1.47-13.16,5.07-21.66,15.93-36,18.86-10,2-21.14-7.52-30-4.28-11,4-21.6,29.62-35.71,21.18C52.62,158,61.49,137.39,57.91,120.88h-1c-4,5.76-7.82,11.36-10.21,18-8.82,24.45,12,47.57,37.21,46.64,5.8-.21,13.66-9,18.78-7.31,4.13,1.39,5.8,11,7.22,14.67,8.79-3.5,6-24,6-32,26.62,11.78,39.44-10,62-17.89,5.54-1.9,11.31-.11,17-.11-6.83,21-17.76,39.34-35,53.53-16.39,13.5-41.18,20.47-51.47,40.47-4.31,8.39-4.53,16.82-4.53,26h3c0-37.87,37-45.6,61-67.17s33.93-52.65,35.91-83.83C208.23,42.66,137.91-18,70.91,5c-15.79,5.41-29.49,14.92-41,26.92a104.67,104.67,0,0,0-22.3,36c-16.22,44.62-6.38,95,28.3,128,16.7,16,48,22.43,57.47,45C96.16,247.48,94.91,255.88,94.91,262.88Z"/><path class="cls-1" d="M84.91,18.31c-54,7.74-60.52,92.71-6,105a54.34,54.34,0,0,0,20,1.29,45,45,0,0,0,23-10.58c10.38-8.87,18.28-19.35,20.67-33.13C148.61,46.19,120.68,13.17,84.91,18.31Z"/><path class="cls-1" d="M65.19,123.92c-4,2.36-4.28,9-4.28,13-.08,11,5.36,36,21,27.48a59.36,59.36,0,0,0,19.23-17.48c1.65-2.49,4.53-9-.38-10-6.35-1.44-13.07,9.77-19.54,6.76C75.65,141,77.88,116.38,65.19,123.92Z"/><path class="cls-1" d="M80.91,128.88l2,10c5.9-1,12.45-2,13-9Z"/></g></g></svg>