<svg xmlns="http://www.w3.org/2000/svg" viewBox="0 0 227.09 271"><defs><style>.cls-1{fill:#e99e95;}</style></defs><g id="レイヤー_2" data-name="レイヤー 2"><g id="レイヤー_1-2" data-name="レイヤー 1"><path class="cls-1" d="M186.92,0c1.94,6,9,3.53,14,4.68,7.66,1.76,19.68,9.34,22,17.32.92,3-1.24,7.27-5,6.63-3.17-.6-6.19-4.63-9-6.5-5.22-3.13-12-4.33-18-4.09-11,.43-18.54,9-5,14v1c-7,0-19.43,4.7-9,12.3,4,2.94,10,3.32,15,3.7v1c-5.57,1.6-17,4.09-20,9,10.84-.22,17.74-5.26,27-9.85C209.46,44,223.34,39.67,226.6,26,231.41,5.81,200.12,0,186.92,0Zm-6,23c11-2,27-2.73,33,9C205.12,32,184.18,33.43,180.92,23Zm-5,15c7.46-3,19.21-3.22,20,7C188.3,45,179.8,46,175.92,38Zm24,7-5-11,20,1C212.92,42,206.36,43.65,199.92,45Z"/><path class="cls-1" d="M54.92,77c4-.93,7.93-2.38,12-3.19a36.62,36.62,0,0,1,7-.79c6.87,0,11.21,4.38,7.38,11-4.43,7.64-13.08,13-19.38,19-2.35,2.21-6.38,4.63-7.07,8-1,5,4.07,12.16,6.81,16a53.66,53.66,0,0,0,46.26,22c17.37-1.28,33.39-10.89,42-26,2.64-4.35,7-11.78,5.36-17-3.36-10.66-22.8-16.81-22.36-29,.49-8.65,12.42-7.34,18-6-2-6-6.47-10.63-11-15C112.68,30,68.13,43.47,54.92,77Z"/><path class="cls-1" d="M44.92,271h127c0-22-4.15-43.33-7.27-65-1-6.58-6-20.74-3.41-26.82,2.07-4.91,11.38-8.65,15.68-11.51,18.54-12.36,48.81-27.44,37.33-54.67-3.33-7.85-9.34-10.64-16.33-14.8-12-7.13-24.74-15.38-38-19.84-4-1.36-17.77-6.36-21-1.77-2.37,3.61,5.89,9.41,8,11.41,8,7.7,16.51,15.23,25,22.58,2.31,2,8.46,6,7.39,9.75-.82,2.84-5.1,4.68-7.39,6.07-7.53,4.6-15.18,8.81-23,12.86-23.12,12-43,21.52-69,10.74-6-2.6-10.3-7.67-16-10.74-7.65-4.12-20-8.67-25.46-15.5-3.2-3.94,2.79-8,5.46-10.34,8.8-7.65,17.55-15.42,26-23.42,2-2,10.37-7.8,7.91-11.41-3.47-5.1-19.64,1.14-23.91,2.86C36.09,88.65,1.92,102.24.11,124c-2,23.26,23.62,35,39.81,45.67,4.3,2.86,13.6,6.6,15.68,11.51,2.32,5.87-2.32,19.48-3.26,25.82C49.19,228.26,44.92,249.45,44.92,271Z"/></g></g></svg>