<svg xmlns="http://www.w3.org/2000/svg" viewBox="0 0 236.7 250.86"><defs><style>.cls-1{fill:#e99e95;}</style></defs><g id="レイヤー_2" data-name="レイヤー 2"><g id="レイヤー_1-2" data-name="レイヤー 1"><path class="cls-1" d="M53.53,22.92c-32,1.41-46,45-19,63.6,6.55,4.54,15.29,5.1,23,4.81C101.08,89.38,96.53,21.33,53.53,22.92Z"/><path class="cls-1" d="M142.53.82c-6.11-1.49-13.7-.49-20-.49v1c11.83,3.49,19.94,2,30,11.17C155.19,15,164,26.4,154.53,27c-3.68.31-8-5.42-11-7.16-7.12-4-19.3-5.29-27-1.53s.59,10.35,5,12v1c-7,0-19.43,4.69-9,12.29,4,3,10,3.32,15,3.71v1c-5.57,1.6-17,4.08-20,9,11.41-.24,18-6.17,28-10.31,5.34-2.22,11.41-2.36,15.6-6.91,3.21-3.48,10-11.31,11.08-15.78C164.75,13.65,151.51,3.33,142.53.82Zm-26,20.51c11-2,27-2.73,33,9C140.73,30.33,119.79,31.76,116.53,21.33Zm-5,15c7.46-3,19.21-3.22,20,7C123.91,43.33,115.41,44.33,111.53,36.33Zm24,7-5-11,20,1C148.53,40.33,142,42,135.53,43.33Z"/><path class="cls-1" d="M5.53,172.33c4.53-12,6.84-31.29,17-40l-1,28h51v-27c6.36,7.48,7.91,14.54,9.18,24,.31,2.29,1,7.54,3.82,8.08,3.71.65,3.82-7,4-9.08,1.17-10,1.94-19-.35-29-2-8.56-11.25-27.85-20.65-30-6-1.55-13.56,1.62-20,.7-5-.7-12.25-5.41-17-4.55-23,4.14-27.65,37-30.13,54.85C.46,155.08-2.74,169.82,5.53,172.33Z"/><path class="cls-1" d="M196.53,95.33c1.94,6,9,3.53,14,4.68,7.66,1.76,19.68,9.33,22,17.32.92,3-1.24,7.27-5,6.62-3.17-.59-6.19-4.62-9-6.49-5.22-3.13-12-4.33-18-4.09-11,.43-18.54,9-5,14v1c-7.05,0-19.43,4.69-9,12.29,4,2.95,10,3.32,15,3.71v1c-5.57,1.6-17,4.08-20,9,10.84-.23,17.74-5.26,27-9.85,10.54-5.15,24.42-9.48,27.68-23.15C241,101.14,209.73,95.33,196.53,95.33Zm-6,23c11-2,27-2.73,33,9C214.73,127.33,193.79,128.76,190.53,118.33Zm-5,15c7.46-3,19.21-3.22,20,7C197.91,140.33,189.41,141.33,185.53,133.33Zm24,7-5-11,20,1C222.53,137.33,216,139,209.53,140.33Z"/><path class="cls-1" d="M162.53,159.84c-5,.49-9.72,1.49-14,4-2.56,1.53-5.76,5.31-9,4.89-3.78-.37-7.3-4.9-11-6.28-13-4.8-27.74-1.43-36.81,8.91-21.86,25,6.07,58.44,27.81,71,6.45,3.52,14.24,8.8,22,8.52,23-.81,49.88-26.87,54.48-48.52C200.75,180,187.12,158.33,162.53,159.84Z"/></g></g></svg>