<svg xmlns="http://www.w3.org/2000/svg" viewBox="0 0 224.91 253.15"><defs><style>.cls-1{fill:#e99e95;}</style></defs><g id="レイヤー_2" data-name="レイヤー 2"><g id="レイヤー_1-2" data-name="レイヤー 1"><path class="cls-1" d="M99.91,69.15h1l11-33,21,4,3-31c6.93.06,18.88,4.68,20-5-5.28-.71-23.15-7.19-27-2.4-5,6.14,2.28,19.81-4.59,25.71-4.74,4.06-13-2.64-18,0-3.19,1.72-3.13,7.65-3.56,10.65C101.35,48.38,99.91,58.81,99.91,69.15Z"/><path class="cls-1" d="M132.91,45.15c-10.28,4.21-19.61,27.7-22,38l23.42-24.61,17.58,8.61,13-28c6,3.34,16.28,11.22,21,3-4.72-3.21-17.73-14.27-23.79-12.29-11.91,3.9-4.21,29.35-23.21,19.81A20.32,20.32,0,0,1,132.91,45.15Z"/><path class="cls-1" d="M36.91,33.59c-58,9.3-43.33,101.07,14,92.12,8.6-1.34,17.85-4.56,24.62-10.3C111.72,85.16,81.71,26.39,36.91,33.59Z"/><path class="cls-1" d="M138.91,161.15h1l11-33,21,4,3-31c6.93.06,18.88,4.68,20-5-5.28-.71-23.15-7.19-27-2.4-5,6.14,2.28,19.81-4.59,25.71-4.74,4.06-13-2.64-18,0-3.19,1.72-3.13,7.65-3.56,10.65C140.35,140.38,138.91,150.81,138.91,161.15Z"/><path class="cls-1" d="M21.91,125.15c-5.67,10-9.75,22-12.53,33-3,12.1-10.57,37-2,48,5.28,6.76,11.23,4.71,18.57,5.58,19,2.42,42.81-4.25,61-9.92,8.89-2.66,18.56-4.84,27-8.85,2.29-1.09,7-4,4.92-7.21-3-4.52-17.24-2.6-21.91-2.6-20,0-40,0-59-7v-1c6.94-1.36,14,1,21,2,15.8,1.76,33.18,4.14,49,2.28,4.64-.54,16.82-.59,16.29,6.81-.94,13-21.77,11.49-28.86,17.73-6.21,5.46-6.43,24.42-6.43,32.18,15.55-7.4,26.36-24.93,35.3-39,3.18-5,8.32-13,8.67-19,.31-5.4-5.77-11.83-8.69-16-7.9-11.24-16.28-22.58-25.28-33-3.31-4-7-9.43-12-11.63-6.7-2.94-18.48,8.17-25,10.38C48.2,132.55,35.15,129.32,21.91,125.15Z"/><path class="cls-1" d="M171.91,137.15c-10.28,4.21-19.61,27.7-22,38l23.42-24.61,17.58,8.61,13-28c6,3.34,16.28,11.22,21,3-4.72-3.21-17.73-14.27-23.79-12.29-11.91,3.9-4.21,29.35-23.21,19.81A20.32,20.32,0,0,1,171.91,137.15Z"/><path class="cls-1" d="M25.91,217.15l-3,36h89l-3-27c-5.44,3.83-11.71,13.8-19,13.71-11.72-.15-2.66-27.71-1-33.71C68.38,210.15,46.91,218.38,25.91,217.15Z"/></g></g></svg>