<svg xmlns="http://www.w3.org/2000/svg" viewBox="0 0 272 244.01"><defs><style>.cls-1{fill:#e99e95;}</style></defs><g id="レイヤー_2" data-name="レイヤー 2"><g id="レイヤー_1-2" data-name="レイヤー 1"><path class="cls-1" d="M189,82c-16.31-5.59-8-25.77-7.38-38a43.36,43.36,0,0,0-11.24-29.83A42.9,42.9,0,0,0,152,2.23c-21.59-7-45.54,2.86-55,23.78-10,22.12,1.72,52.42,26,59.07,9.21,2.52,20.56,2.52,30,1.52S185,95.45,189,82Z"/><path class="cls-1" d="M125,211c-4.09-17-26.81-30.56-26-49l11.45,16L130,207h1c2-14,17-23.71,24.67-35,.71-1,8.68-11.76,9.56-6.71.62,3.71-6.38,10-8.46,12.71-7.92,10.28-20.47,19-20.77,33,20.21-4.8,54.58-28.47,56.8-51,1.12-11.38-6.82-27.69-11.23-38-3.08-7.22-6.35-20.37-12.78-25-9.27-7-28.37-1.38-39.79-3.29-5.08-.71-11-3.71-16-3.09C101,92.44,91,110.56,85.4,120c-6.54,11-15.6,27-15.4,40C70.76,185,101.54,210.81,125,211Z"/><path class="cls-1" d="M213,157l-21,32,24.42-19.4L231,179c2.63-4.89,10.27-20.44,16-21,4.23-.61,11,5.35,15,7l2-5c-4-3-16-16.32-21.37-12.93-5.73,3.57-7,16.53-14.16,18.2C224.52,166.2,216.84,158.48,213,157Z"/><path class="cls-1" d="M8,169l2,5c3.95-1.65,10.77-7.61,14.91-7,5.82.56,13.46,16.11,16.09,21l14.72-9.4L80,198,59,166c-4,1.5-11.55,9.22-15.62,8.27-7-1.63-8.38-14.69-14-18.2C23.92,152.69,11.87,166,8,169Z"/><path class="cls-1" d="M235,196l-9.21-12.17L216,188.73,195,205c6.86-2,22.27-12.84,28.91-10,4.68,2,7.41,9,10.09,13,6.25-3,14.86-12.91,21.73-13.31,7.07-.41,7.27,11.94,16.27,8.31-1.61-4.42-9-21-14.72-20.26C250,183.74,242.56,193.62,235,196Z"/><path class="cls-1" d="M0,212c8.93,3.62,9.26-8.74,16.41-8.31C23,204.1,31.82,214.08,38,217c2.68-4,5.41-11,10-13,6.73-2.84,22,8,29,10L56,197.73l-9.79-4.89L37,205c-7.56-2.39-15-12.27-22.28-13.26C8.86,191,1.61,207.59,0,212Z"/><path class="cls-1" d="M177,194c-12,9.51-31.29,26-47,19-9.6,11.53-29-3.44-38-9l-3,40h96l-4.83-31Z"/></g></g></svg>