<svg xmlns="http://www.w3.org/2000/svg" viewBox="0 0 293.88 224.96"><defs><style>.cls-1{fill:#e99e95;}</style></defs><g id="レイヤー_2" data-name="レイヤー 2"><g id="レイヤー_1-2" data-name="レイヤー 1"><path class="cls-1" d="M43.88.39c-8.64,1.07-16.8,3.2-24,8.36-39.61,28.37-15.58,93.24,33,88C111.22,90.53,102.33-6.87,43.88.39Z"/><path class="cls-1" d="M99.88,65c-9.48,22.76-25.66,32.37-48,40,13.87,42.63,51.31,73.24,55,120h99c0-22-2.4-44-13-64-4,3-8.54,8.53-13.24,3.7-8.26-8.48-1.24-19.59-6.46-28.7-10.3-17.7-27.94-31.94-42.3-46,11.71-.93,30.35-6.51,40.87,1,5.78,4.11,4.71,12.8,5.3,19,1.53,16,.83,34.7,5.83,50,8.29-2.59,9.36-13.73,11-21,4.57-18.29,9-36,9-55,0-6.69,1.36-15.6-4.22-20.57-6.59-5.87-21.4-6.06-29.78-6.43-15.56-.8-30.52-1-46,1.61C114.88,60,107.57,63.62,99.88,65Z"/><path class="cls-1" d="M207.88,141h1l11-33,21,4,3-31c6.93.05,18.89,4.68,20-5-5.28-.71-23.15-7.19-27-2.4-5,6.14,2.29,19.81-4.59,25.7-4.74,4.07-13-2.64-18,0-3.19,1.72-3.13,7.65-3.56,10.65C209.32,120.19,207.88,130.62,207.88,141Z"/><path class="cls-1" d="M240.88,117c-10.27,4.2-19.61,27.69-22,38l23.43-24.61L259.88,139l13-28c6,3.34,16.28,11.22,21,3-4.72-3.21-17.73-14.27-23.79-12.29-11.91,3.89-4.21,29.35-23.21,19.81A20.45,20.45,0,0,1,240.88,117Z"/></g></g></svg>